<svg xmlns="http://www.w3.org/2000/svg" width="640" height="400" data-background-color="#f9f9f9"><path fill="#f9f9f9" d="M0 0h640v400H0z" data-fill-palette-color="background"/><g transform="translate(122.24 138.306)"><svg width="395.52" height="123.388" viewBox="0 0 395.52 123.388"><g><svg width="395.52" height="123.388" viewBox="0 0 623.115 194.389"><g transform="translate(227.595 26.866)"><svg width="395.52" height="140.657" viewBox="0 0 395.52 140.657"><g><svg width="395.52" height="140.657" viewBox="0 0 395.52 140.657"><g><svg width="395.52" height="140.657" viewBox="0 0 395.52 140.657"><g><svg width="395.52" height="140.657" data-palette-color="#030303" viewBox="4 -32.67 121.92 43.36"><path fill="#030303" d="M10.18-17.16v10.1q0 5.5.2 7.06H4v-25.51h6.18v2.19Q13.53-26 17.04-26q4.15 0 6.03 3.59 1.88-1.93 3.13-2.54Q28.27-26 30.36-26q2.09 0 3.55.71 1.47.71 2.42 2 1.93 2.61 1.93 7.18v9.71q0 4.13.12 4.96.12.83.33 1.07.21.25.35.44l-.05.1Q37.06 0 36.13 0H34.3q-.9 0-2.22.07v-13.2q0-5.72-1.76-6.79-.58-.34-1.38-.34-.79 0-1.4.18-.61.18-1.15.6-.9.66-2.05 2.59.03.19.03.39v6.44q0 6.25.29 10.06h-3.53q-1.45 0-2.77.07v-13.23q0-3.98-.48-5.17-.47-1.2-1.01-1.57-.54-.36-1.32-.36-3.22 0-5.37 3.1Zm41.99 7.27V.15Q50.49 0 47.87 0h-1.93v-32.57l.98.05q1.03.05 1.54.05h.71q2.15 0 3-.2v13.8l9.89-13.7q1.56.1 2.63.1h1.35q2.51 0 3.59-.2L60.2-20.36l9.28 18.41q.59 1.34 1.1 1.95h-1.49q-5.15 0-6.42.2-.27-1.64-.73-2.86l-6.23-11.87-3.54 4.64Zm21.07-2.66q0-2.86.97-5.3.98-2.44 2.76-4.27Q80.78-26 86.93-26q5.2 0 8.35 3.44 3.1 3.32 3.1 8.35 0 1.93-.29 2.64-2.44.68-9.94.68h-8.59q.64 2.61 2.95 4.07 2.32 1.45 6.03 1.45 3.89 0 6.67-1.39.73-.37 1.1-.69-.05 1.03-.12 2.1l-.27 3.81Q94.06-.27 89.91.22q-1.22.15-2.34.15-6.2 0-10.26-3.62-4.07-3.63-4.07-9.3Zm18.65-3.08q-1-5.24-5.71-5.24-3.71 0-5.64 3.19-.59.98-.91 2.15.59.03 1.44.05h1.81q.9.03 1.73.03h1.4q1.24 0 2.44-.03l2-.07q.8-.03 1.44-.08Zm15.74 26.32-6.29-2.19 1.61-1.3q3.63-2.95 6.03-8.71l1.12-2.71-9.35-21.29h6.84l5.85 14.74 5.45-14.74h7.03q-1.27 1.76-3.1 6.54l-3.66 9.06q-7.35 17.28-11.53 20.6Z" class="wordmark-text-0" data-fill-palette-color="primary"/></svg></g></svg></g></svg></g></svg></g><g><svg width="194.389" height="194.389" viewBox="0 0 194.389 194.389"><g><svg xmlns="http://www.w3.org/2000/svg" xmlns:xlink="http://www.w3.org/1999/xlink" xml:space="preserve" width="194.389" height="194.389" class="icon-icon-0" data-fill-palette-color="accent" viewBox="0.5 0.5 47 47"><g fill="#030303" data-fill-palette-color="accent"><path d="M39.1 40.1H8.9c-.6 0-1-.4-1-1V8.9c0-.6.4-1 1-1h30.2c.6 0 1 .4 1 1v30.2c0 .6-.4 1-1 1zm-29.2-2h28.2V9.9H9.9v28.2z" data-fill-palette-color="accent"/><path d="M32.4 33.4H15.6c-.6 0-1-.4-1-1V15.6c0-.6.4-1 1-1h16.7c.6 0 1 .4 1 1v16.7c.1.6-.4 1.1-.9 1.1zm-15.8-2h14.7V16.6H16.6v14.8z" data-fill-palette-color="accent"/><g data-fill-palette-color="accent"><g data-fill-palette-color="accent"><path d="M13.6 6.5c-.6 0-1-.4-1-1v-4c0-.6.4-1 1-1s1 .4 1 1v4c0 .6-.4 1-1 1zM18.8 6.5c-.6 0-1-.4-1-1v-4c0-.6.4-1 1-1s1 .4 1 1v4c0 .6-.4 1-1 1zM24 6.5c-.6 0-1-.4-1-1v-4c0-.6.4-1 1-1s1 .4 1 1v4c0 .6-.4 1-1 1zM29.2 6.5c-.6 0-1-.4-1-1v-4c0-.6.4-1 1-1s1 .4 1 1v4c0 .6-.5 1-1 1zM34.4 6.5c-.6 0-1-.4-1-1v-4c0-.6.4-1 1-1s1 .4 1 1v4c0 .6-.5 1-1 1z" data-fill-palette-color="accent"/></g><g data-fill-palette-color="accent"><path d="M13.6 47.5c-.6 0-1-.4-1-1v-4c0-.6.4-1 1-1s1 .4 1 1v4c0 .6-.4 1-1 1zM18.8 47.5c-.6 0-1-.4-1-1v-4c0-.6.4-1 1-1s1 .4 1 1v4c0 .6-.4 1-1 1zM24 47.5c-.6 0-1-.4-1-1v-4c0-.6.4-1 1-1s1 .4 1 1v4c0 .6-.4 1-1 1zM29.2 47.5c-.6 0-1-.4-1-1v-4c0-.6.4-1 1-1s1 .4 1 1v4c0 .6-.5 1-1 1zM34.4 47.5c-.6 0-1-.4-1-1v-4c0-.6.4-1 1-1s1 .4 1 1v4c0 .6-.5 1-1 1z" data-fill-palette-color="accent"/></g></g><g data-fill-palette-color="accent"><g data-fill-palette-color="accent"><path d="M46.5 14.6h-4c-.6 0-1-.4-1-1s.4-1 1-1h4c.6 0 1 .4 1 1s-.4 1-1 1zM46.5 19.8h-4c-.6 0-1-.4-1-1s.4-1 1-1h4c.6 0 1 .4 1 1s-.4 1-1 1zM46.5 25h-4c-.6 0-1-.4-1-1s.4-1 1-1h4c.6 0 1 .4 1 1s-.4 1-1 1zM46.5 30.2h-4c-.6 0-1-.4-1-1s.4-1 1-1h4c.6 0 1 .4 1 1 0 .5-.4 1-1 1zM46.5 35.4h-4c-.6 0-1-.4-1-1s.4-1 1-1h4c.6 0 1 .4 1 1 0 .5-.4 1-1 1z" data-fill-palette-color="accent"/></g><g data-fill-palette-color="accent"><path d="M5.5 14.6h-4c-.6 0-1-.4-1-1s.4-1 1-1h4c.6 0 1 .4 1 1s-.4 1-1 1zM5.5 19.8h-4c-.6 0-1-.4-1-1s.4-1 1-1h4c.6 0 1 .4 1 1s-.4 1-1 1zM5.5 25h-4c-.6 0-1-.4-1-1s.4-1 1-1h4c.6 0 1 .4 1 1s-.4 1-1 1zM5.5 30.2h-4c-.6 0-1-.4-1-1s.4-1 1-1h4c.6 0 1 .4 1 1 0 .5-.4 1-1 1zM5.5 35.4h-4c-.6 0-1-.4-1-1s.4-1 1-1h4c.6 0 1 .4 1 1 0 .5-.4 1-1 1z" data-fill-palette-color="accent"/></g></g></g></svg></g></svg></g></svg></g></svg></g></svg>