<svg xmlns="http://www.w3.org/2000/svg" width="121.92mm" height="43.36mm" viewBox="0 0 121.92 43.36">
  <g transform="translate(-4,32.67)">
    <path d="M10.18 -17.16 v10.1 q0 5.5 0.2 7.06 H4 v-25.51 h6.18 v2.19 Q13.53 -26 17.04 -26 q4.15 0 6.03 3.59 1.88 -1.93 3.13 -2.54 Q28.27 -26 30.36 -26 q2.09 0 3.55 0.71 1.47 0.71 2.42 2 1.93 2.61 1.93 7.18 v9.71 q0 4.13 0.12 4.96 0.12 0.83 0.33 1.07 0.21 0.25 0.35 0.44 l-0.05 0.1 Q37.06 0 36.13 0 H34.3 q-0.9 0 -2.22 0.07 v-13.2 q0 -5.72 -1.76 -6.79 -0.58 -0.34 -1.38 -0.34 -0.79 0 -1.4 0.18 -0.61 0.18 -1.15 0.6 -0.9 0.66 -2.05 2.59 0.03 0.19 0.03 0.39 v6.44 q0 6.25 0.29 10.06 h-3.53 q-1.45 0 -2.77 0.07 v-13.23 q0 -3.98 -0.48 -5.17 -0.47 -1.2 -1.01 -1.57 -0.54 -0.36 -1.32 -0.36 -3.22 0 -5.37 3.1 Z m41.99 7.27 V0.15 Q50.49 0 47.87 0 h-1.93 v-32.57 l0.98 0.05 q1.03 0.05 1.54 0.05 h0.71 q2.15 0 3 -0.2 v13.8 l9.89 -13.7 q1.56 0.1 2.63 0.1 h1.35 q2.51 0 3.59 -0.2 L60.2 -20.36 l9.28 18.41 q0.59 1.34 1.1 1.95 h-1.49 q-5.15 0 -6.42 0.2 -0.27 -1.64 -0.73 -2.86 l-6.23 -11.87 -3.54 4.64 Z m21.07 -2.66 q0 -2.86 0.97 -5.3 0.98 -2.44 2.76 -4.27 Q80.78 -26 86.93 -26 q5.2 0 8.35 3.44 3.1 3.32 3.1 8.35 0 1.93 -0.29 2.64 -2.44 0.68 -9.94 0.68 h-8.59 q0.64 2.61 2.95 4.07 2.32 1.45 6.03 1.45 3.89 0 6.67 -1.39 0.73 -0.37 1.1 -0.69 -0.05 1.03 -0.12 2.1 l-0.27 3.81 Q94.06 -0.27 89.91 0.22 q-1.22 0.15 -2.34 0.15 -6.2 0 -10.26 -3.62 -4.07 -3.63 -4.07 -9.3 Z m18.65 -3.08 q-1 -5.24 -5.71 -5.24 -3.71 0 -5.64 3.19 -0.59 0.98 -0.91 2.15 0.59 0.03 1.44 0.05 h1.81 q0.9 0.03 1.73 0.03 h1.4 q1.24 0 2.44 -0.03 l2 -0.07 q0.8 -0.03 1.44 -0.08 Z m15.74 26.32 -6.29 -2.19 1.61 -1.3 q3.63 -2.95 6.03 -8.71 l1.12 -2.71 -9.35 -21.29 h6.84 l5.85 14.74 5.45 -14.74 h7.03 q-1.27 1.76 -3.1 6.54 l-3.66 9.06 q-7.35 17.28 -11.53 20.6 Z"/>
  </g>
</svg>
