<svg xmlns="http://www.w3.org/2000/svg" width="121.92mm" height="43.36mm" viewBox="0 0 121.92 43.36">
  <g transform="translate(-4,32.67)">
    <path d="M 10.18 -17.16 L 10.18 -7.06 L 10.1808 -6.3879 L 10.1831 -5.7466 L 10.187 -5.136 L 10.1925 -4.5563 L 10.1995 -4.0073 L 10.2081 -3.4891 L 10.2183 -3.0016 L 10.23 -2.545 L 10.2433 -2.1191 L 10.2581 -1.7241 L 10.2745 -1.3598 L 10.2925 -1.0263 L 10.312 -0.7235 L 10.3331 -0.4516 L 10.3558 -0.2104 L 10.38 -0 L 4 -0 L 4 -25.51 L 10.18 -25.51 L 10.18 -23.32 L 10.5994 -23.6445 L 11.02 -23.9481 L 11.4419 -24.2308 L 11.865 -24.4925 L 12.2894 -24.7333 L 12.715 -24.9531 L 13.1419 -25.152 L 13.57 -25.33 L 13.9994 -25.487 L 14.43 -25.6231 L 14.8619 -25.7383 L 15.295 -25.8325 L 15.7294 -25.9058 L 16.165 -25.9581 L 16.6019 -25.9895 L 17.04 -26 L 17.5499 -25.986 L 18.042 -25.9439 L 18.5164 -25.8738 L 18.9731 -25.7756 L 19.4121 -25.6494 L 19.8333 -25.4952 L 20.2368 -25.3129 L 20.6225 -25.1025 L 20.9905 -24.8641 L 21.3408 -24.5977 L 21.6733 -24.3032 L 21.9881 -23.9806 L 22.2852 -23.63 L 22.5645 -23.2514 L 22.8261 -22.8447 L 23.07 -22.41 L 23.3025 -22.6461 L 23.5302 -22.8719 L 23.7529 -23.0873 L 23.9706 -23.2925 L 24.1835 -23.4873 L 24.3914 -23.6719 L 24.5944 -23.8461 L 24.7925 -24.01 L 24.9857 -24.1636 L 25.1739 -24.3069 L 25.3572 -24.4398 L 25.5356 -24.5625 L 25.7091 -24.6748 L 25.8777 -24.7769 L 26.0413 -24.8686 L 26.2 -24.95 L 26.4588 -25.0771 L 26.7178 -25.1961 L 26.977 -25.3068 L 27.2362 -25.4094 L 27.4957 -25.5037 L 27.7553 -25.5898 L 28.0151 -25.6678 L 28.275 -25.7375 L 28.5351 -25.799 L 28.7953 -25.8523 L 29.0557 -25.8975 L 29.3163 -25.9344 L 29.577 -25.9631 L 29.8378 -25.9836 L 30.0988 -25.9959 L 30.36 -26 L 30.6188 -25.9972 L 30.8727 -25.9889 L 31.1216 -25.975 L 31.3656 -25.9556 L 31.6047 -25.9307 L 31.8389 -25.9002 L 32.0682 -25.8641 L 32.2925 -25.8225 L 32.5119 -25.7754 L 32.7264 -25.7227 L 32.936 -25.6644 L 33.1406 -25.6006 L 33.3404 -25.5313 L 33.5352 -25.4564 L 33.725 -25.376 L 33.91 -25.29 L 34.0917 -25.199 L 34.2694 -25.1034 L 34.443 -25.0034 L 34.6125 -24.8987 L 34.778 -24.7896 L 34.9394 -24.6759 L 35.0967 -24.5577 L 35.25 -24.435 L 35.3992 -24.3077 L 35.5444 -24.1759 L 35.6855 -24.0396 L 35.8225 -23.8987 L 35.9555 -23.7534 L 36.0844 -23.6034 L 36.2092 -23.449 L 36.33 -23.29 L 36.5637 -22.9561 L 36.7823 -22.6069 L 36.9859 -22.2423 L 37.1744 -21.8625 L 37.3478 -21.4673 L 37.5061 -21.0569 L 37.6493 -20.6311 L 37.7775 -20.19 L 37.8906 -19.7336 L 37.9886 -19.2619 L 38.0715 -18.7748 L 38.1394 -18.2725 L 38.1921 -17.7548 L 38.2298 -17.2219 L 38.2525 -16.6736 L 38.26 -16.11 L 38.26 -6.4 L 38.2605 -5.8966 L 38.2619 -5.4191 L 38.2642 -4.9673 L 38.2675 -4.5412 L 38.2717 -4.141 L 38.2769 -3.7666 L 38.283 -3.4179 L 38.29 -3.095 L 38.298 -2.7979 L 38.3069 -2.5266 L 38.3167 -2.281 L 38.3275 -2.0612 L 38.3392 -1.8673 L 38.3519 -1.6991 L 38.3655 -1.5566 L 38.38 -1.44 L 38.3954 -1.3386 L 38.4114 -1.2417 L 38.4282 -1.1495 L 38.4456 -1.0619 L 38.4638 -0.9789 L 38.4827 -0.9005 L 38.5022 -0.8267 L 38.5225 -0.7575 L 38.5435 -0.6929 L 38.5652 -0.633 L 38.5875 -0.5776 L 38.6106 -0.5269 L 38.6344 -0.4807 L 38.6589 -0.4392 L 38.6841 -0.4023 L 38.71 -0.37 L 38.736 -0.339 L 38.7614 -0.3084 L 38.7863 -0.2784 L 38.8106 -0.2487 L 38.8344 -0.2196 L 38.8577 -0.1909 L 38.8804 -0.1627 L 38.9025 -0.135 L 38.9241 -0.1077 L 38.9452 -0.0809 L 38.9657 -0.0546 L 38.9856 -0.0287 L 39.005 -0.0034 L 39.0239 0.0216 L 39.0422 0.046 L 39.06 0.07 L 39.01 0.17 L 38.7702 0.1494 L 38.5384 0.1302 L 38.3146 0.1122 L 38.0988 0.0956 L 37.8909 0.0804 L 37.6909 0.0664 L 37.499 0.0538 L 37.315 0.0425 L 37.139 0.0325 L 36.9709 0.0239 L 36.8109 0.0166 L 36.6587 0.0106 L 36.5146 0.006 L 36.3784 0.0027 L 36.2502 0.0007 L 36.13 0 L 34.3 0 L 34.1859 0.0003 L 34.0684 0.0011 L 33.9477 0.0025 L 33.8237 0.0044 L 33.6965 0.0068 L 33.5659 0.0098 L 33.4321 0.0134 L 33.295 0.0175 L 33.1546 0.0221 L 33.0109 0.0273 L 32.864 0.0331 L 32.7137 0.0394 L 32.5602 0.0462 L 32.4034 0.0536 L 32.2434 0.0615 L 32.08 0.07 L 32.08 -13.13 L 32.0731 -13.8268 L 32.0525 -14.4873 L 32.0181 -15.1115 L 31.97 -15.6994 L 31.9081 -16.2509 L 31.8325 -16.7661 L 31.7431 -17.245 L 31.64 -17.6875 L 31.5231 -18.0937 L 31.3925 -18.4636 L 31.2481 -18.7971 L 31.09 -19.0944 L 30.9181 -19.3553 L 30.7325 -19.5798 L 30.5331 -19.7681 L 30.32 -19.92 L 30.2466 -19.9612 L 30.1716 -19.9997 L 30.0948 -20.0355 L 30.0162 -20.0687 L 29.936 -20.0993 L 29.8541 -20.1272 L 29.7704 -20.1524 L 29.685 -20.175 L 29.5979 -20.1949 L 29.5091 -20.2122 L 29.4185 -20.2268 L 29.3262 -20.2387 L 29.2323 -20.248 L 29.1366 -20.2547 L 29.0391 -20.2587 L 28.94 -20.26 L 28.842 -20.2593 L 28.7453 -20.2572 L 28.6501 -20.2537 L 28.5562 -20.2487 L 28.4638 -20.2424 L 28.3728 -20.2347 L 28.2832 -20.2255 L 28.195 -20.215 L 28.1082 -20.203 L 28.0228 -20.1897 L 27.9388 -20.1749 L 27.8562 -20.1587 L 27.7751 -20.1412 L 27.6953 -20.1222 L 27.617 -20.1018 L 27.54 -20.08 L 27.464 -20.0566 L 27.3886 -20.0312 L 27.3137 -20.0041 L 27.2394 -19.975 L 27.1656 -19.9441 L 27.0923 -19.9112 L 27.0196 -19.8766 L 26.9475 -19.84 L 26.8759 -19.8016 L 26.8048 -19.7613 L 26.7343 -19.7191 L 26.6644 -19.675 L 26.595 -19.6291 L 26.5261 -19.5812 L 26.4578 -19.5316 L 26.39 -19.48 L 26.2765 -19.3925 L 26.1611 -19.2952 L 26.0437 -19.1879 L 25.9244 -19.0706 L 25.8031 -18.9435 L 25.6798 -18.8064 L 25.5546 -18.6594 L 25.4275 -18.5025 L 25.2984 -18.3357 L 25.1673 -18.1589 L 25.0343 -17.9722 L 24.8994 -17.7756 L 24.7625 -17.5691 L 24.6236 -17.3527 L 24.4828 -17.1263 L 24.34 -16.89 L 24.3436 -16.8662 L 24.347 -16.8423 L 24.3502 -16.8184 L 24.3531 -16.7944 L 24.3558 -16.7703 L 24.3583 -16.7461 L 24.3605 -16.7218 L 24.3625 -16.6975 L 24.3643 -16.6731 L 24.3658 -16.6486 L 24.3671 -16.624 L 24.3681 -16.5994 L 24.3689 -16.5746 L 24.3695 -16.5498 L 24.3699 -16.525 L 24.37 -16.5 L 24.37 -10.06 L 24.3711 -9.2883 L 24.3745 -8.5356 L 24.3802 -7.802 L 24.3881 -7.0875 L 24.3983 -6.392 L 24.4108 -5.7156 L 24.4255 -5.0583 L 24.4425 -4.42 L 24.4618 -3.8008 L 24.4833 -3.2006 L 24.5071 -2.6195 L 24.5331 -2.0575 L 24.5614 -1.5145 L 24.592 -0.9906 L 24.6249 -0.4858 L 24.66 0 L 21.13 0 L 20.9493 0.0003 L 20.7695 0.0011 L 20.5908 0.0025 L 20.4131 0.0044 L 20.2364 0.0068 L 20.0608 0.0098 L 19.8861 0.0134 L 19.7125 0.0175 L 19.5399 0.0221 L 19.3683 0.0273 L 19.1977 0.0331 L 19.0281 0.0394 L 18.8596 0.0462 L 18.692 0.0536 L 18.5255 0.0615 L 18.36 0.07 L 18.36 -13.16 L 18.3581 -13.6466 L 18.3525 -14.1114 L 18.3431 -14.5544 L 18.33 -14.9756 L 18.3131 -15.375 L 18.2925 -15.7527 L 18.2681 -16.1085 L 18.24 -16.4425 L 18.2081 -16.7547 L 18.1725 -17.0452 L 18.1331 -17.3138 L 18.09 -17.5606 L 18.0431 -17.7857 L 17.9925 -17.9889 L 17.9381 -18.1704 L 17.88 -18.33 L 17.821 -18.4768 L 17.7614 -18.617 L 17.7013 -18.7508 L 17.6406 -18.8781 L 17.5794 -18.9989 L 17.5177 -19.1133 L 17.4554 -19.2211 L 17.3925 -19.3225 L 17.3291 -19.4174 L 17.2652 -19.5058 L 17.2007 -19.5877 L 17.1356 -19.6631 L 17.07 -19.7321 L 17.0039 -19.7945 L 16.9372 -19.8505 L 16.87 -19.9 L 16.8016 -19.9436 L 16.7312 -19.9844 L 16.6591 -20.0223 L 16.585 -20.0575 L 16.5091 -20.0898 L 16.4312 -20.1194 L 16.3516 -20.1461 L 16.27 -20.17 L 16.1866 -20.1911 L 16.1013 -20.2094 L 16.0141 -20.2248 L 15.925 -20.2375 L 15.8341 -20.2473 L 15.7412 -20.2544 L 15.6466 -20.2586 L 15.55 -20.26 L 15.1517 -20.2479 L 14.7617 -20.2116 L 14.3801 -20.151 L 14.0069 -20.0662 L 13.642 -19.9573 L 13.2855 -19.8241 L 12.9373 -19.6666 L 12.5975 -19.485 L 12.2661 -19.2791 L 11.943 -19.0491 L 11.6282 -18.7948 L 11.3219 -18.5162 L 11.0239 -18.2135 L 10.7342 -17.8866 L 10.4529 -17.5354 L 10.18 -17.16 Z M 52.17 -9.89 L 52.17 0.15 L 51.9563 0.1318 L 51.7353 0.1148 L 51.507 0.099 L 51.2713 0.0844 L 51.0282 0.0709 L 50.7778 0.0586 L 50.5201 0.0475 L 50.255 0.0375 L 49.9826 0.0287 L 49.7028 0.0211 L 49.4157 0.0146 L 49.1213 0.0094 L 48.8195 0.0053 L 48.5103 0.0023 L 48.1938 0.0006 L 47.87 0 L 45.94 0 L 45.94 -32.57 L 46.92 -32.52 L 47.0467 -32.5139 L 47.1694 -32.5083 L 47.288 -32.503 L 47.4025 -32.4981 L 47.513 -32.4936 L 47.6194 -32.4895 L 47.7217 -32.4858 L 47.82 -32.4825 L 47.9142 -32.4796 L 48.0044 -32.477 L 48.0905 -32.4749 L 48.1725 -32.4731 L 48.2505 -32.4718 L 48.3244 -32.4708 L 48.3942 -32.4702 L 48.46 -32.47 L 49.17 -32.47 L 49.4337 -32.4708 L 49.6872 -32.4731 L 49.9305 -32.477 L 50.1637 -32.4825 L 50.3868 -32.4895 L 50.5997 -32.4981 L 50.8024 -32.5083 L 50.995 -32.52 L 51.1774 -32.5333 L 51.3497 -32.5481 L 51.5118 -32.5645 L 51.6637 -32.5825 L 51.8055 -32.602 L 51.9372 -32.6231 L 52.0587 -32.6458 L 52.17 -32.67 L 52.17 -18.87 L 62.06 -32.57 L 62.2531 -32.5579 L 62.4423 -32.5466 L 62.6278 -32.536 L 62.8094 -32.5263 L 62.9871 -32.5173 L 63.1611 -32.5091 L 63.3312 -32.5016 L 63.4975 -32.495 L 63.66 -32.4891 L 63.8186 -32.4841 L 63.9734 -32.4798 L 64.1244 -32.4763 L 64.2715 -32.4735 L 64.4148 -32.4716 L 64.5543 -32.4704 L 64.69 -32.47 L 66.04 -32.47 L 66.3482 -32.4708 L 66.6452 -32.4731 L 66.931 -32.477 L 67.2056 -32.4825 L 67.4691 -32.4895 L 67.7214 -32.4981 L 67.9625 -32.5083 L 68.1925 -32.52 L 68.4113 -32.5333 L 68.6189 -32.5481 L 68.8154 -32.5645 L 69.0006 -32.5825 L 69.1747 -32.602 L 69.3377 -32.6231 L 69.4894 -32.6458 L 69.63 -32.67 L 60.2 -20.36 L 69.48 -1.95 L 69.5534 -1.7854 L 69.6262 -1.6264 L 69.6984 -1.4732 L 69.77 -1.3256 L 69.8409 -1.1838 L 69.9113 -1.0477 L 69.9809 -0.9172 L 70.05 -0.7925 L 70.1184 -0.6735 L 70.1863 -0.5602 L 70.2534 -0.4525 L 70.32 -0.3506 L 70.3859 -0.2544 L 70.4513 -0.1639 L 70.5159 -0.0791 L 70.58 0 L 69.09 0 L 68.4614 0.0008 L 67.8631 0.0031 L 67.2952 0.007 L 66.7575 0.0125 L 66.2502 0.0195 L 65.7731 0.0281 L 65.3264 0.0383 L 64.91 0.05 L 64.5239 0.0633 L 64.1681 0.0781 L 63.8427 0.0945 L 63.5475 0.1125 L 63.2827 0.132 L 63.0481 0.1531 L 62.8439 0.1758 L 62.67 0.2 L 62.6355 -0.0034 L 62.5995 -0.2034 L 62.5621 -0.4002 L 62.5231 -0.5937 L 62.4827 -0.784 L 62.4408 -0.9709 L 62.3974 -1.1546 L 62.3525 -1.335 L 62.3061 -1.5121 L 62.2583 -1.6859 L 62.2089 -1.8565 L 62.1581 -2.0237 L 62.1058 -2.1877 L 62.052 -2.3484 L 61.9968 -2.5059 L 61.94 -2.66 L 55.71 -14.53 L 52.17 -9.89 Z M 73.24 -12.55 L 73.2438 -12.9059 L 73.2552 -13.2584 L 73.2741 -13.6077 L 73.3006 -13.9538 L 73.3347 -14.2965 L 73.3764 -14.6359 L 73.4257 -14.9721 L 73.4825 -15.305 L 73.5469 -15.6346 L 73.6189 -15.9609 L 73.6985 -16.284 L 73.7856 -16.6038 L 73.8804 -16.9202 L 73.9827 -17.2334 L 74.0925 -17.5434 L 74.21 -17.85 L 74.3356 -18.1526 L 74.4675 -18.4505 L 74.6056 -18.7436 L 74.75 -19.0319 L 74.9006 -19.3154 L 75.0575 -19.5942 L 75.2206 -19.8682 L 75.39 -20.1375 L 75.5656 -20.402 L 75.7475 -20.6617 L 75.9356 -20.9167 L 76.13 -21.1669 L 76.3306 -21.4123 L 76.5375 -21.653 L 76.7506 -21.8889 L 76.97 -22.12 L 77.4554 -22.5898 L 77.9591 -23.0294 L 78.481 -23.4386 L 79.0213 -23.8175 L 79.5798 -24.1661 L 80.1566 -24.4844 L 80.7516 -24.7723 L 81.365 -25.03 L 81.9966 -25.2573 L 82.6466 -25.4544 L 83.3148 -25.6211 L 84.0012 -25.7575 L 84.706 -25.8636 L 85.4291 -25.9394 L 86.1704 -25.9848 L 86.93 -26 L 87.572 -25.9866 L 88.198 -25.9462 L 88.8079 -25.8791 L 89.4019 -25.785 L 89.9798 -25.6641 L 90.5417 -25.5162 L 91.0876 -25.3416 L 91.6175 -25.14 L 92.1314 -24.9116 L 92.6292 -24.6562 L 93.1111 -24.3741 L 93.5769 -24.065 L 94.0267 -23.7291 L 94.4605 -23.3662 L 94.8782 -22.9766 L 95.28 -22.56 L 95.6554 -22.1383 L 96.0066 -21.7033 L 96.3335 -21.2549 L 96.6362 -20.7931 L 96.9148 -20.318 L 97.1691 -19.8295 L 97.3991 -19.3277 L 97.605 -18.8125 L 97.7866 -18.2839 L 97.9441 -17.742 L 98.0773 -17.1868 L 98.1863 -16.6181 L 98.271 -16.0361 L 98.3316 -15.4408 L 98.3679 -14.8321 L 98.38 -14.21 L 98.3789 -13.9735 L 98.3755 -13.7466 L 98.3698 -13.5291 L 98.3619 -13.3212 L 98.3517 -13.1229 L 98.3392 -12.9341 L 98.3245 -12.7548 L 98.3075 -12.585 L 98.2882 -12.4248 L 98.2667 -12.2741 L 98.2429 -12.1329 L 98.2169 -12.0012 L 98.1886 -11.8791 L 98.158 -11.7666 L 98.1251 -11.6635 L 98.09 -11.57 L 97.7652 -11.4877 L 97.4009 -11.4106 L 96.9971 -11.3389 L 96.5538 -11.2725 L 96.0709 -11.2114 L 95.5484 -11.1556 L 94.9865 -11.1052 L 94.385 -11.06 L 93.744 -11.0202 L 93.0634 -10.9856 L 92.3434 -10.9564 L 91.5837 -10.9325 L 90.7846 -10.9139 L 89.9459 -10.9006 L 89.0677 -10.8927 L 88.15 -10.89 L 79.56 -10.89 L 79.6465 -10.5682 L 79.7461 -10.2555 L 79.8587 -9.9517 L 79.9844 -9.6569 L 80.1231 -9.3711 L 80.2748 -9.0942 L 80.4396 -8.8264 L 80.6175 -8.5675 L 80.8084 -8.3176 L 81.0123 -8.0767 L 81.2293 -7.8448 L 81.4594 -7.6219 L 81.7025 -7.4079 L 81.9586 -7.203 L 82.2278 -7.007 L 82.51 -6.82 L 82.8054 -6.6444 L 83.1117 -6.4802 L 83.4289 -6.3272 L 83.7569 -6.1856 L 84.0957 -6.0554 L 84.4455 -5.9364 L 84.8061 -5.8288 L 85.1775 -5.7325 L 85.5598 -5.6475 L 85.953 -5.5739 L 86.357 -5.5116 L 86.7719 -5.4606 L 87.1976 -5.421 L 87.6342 -5.3927 L 88.0817 -5.3757 L 88.54 -5.37 L 89.0219 -5.3754 L 89.4952 -5.3917 L 89.9597 -5.4189 L 90.4156 -5.4569 L 90.8629 -5.5057 L 91.3014 -5.5655 L 91.7313 -5.6361 L 92.1525 -5.7175 L 92.565 -5.8098 L 92.9689 -5.913 L 93.3641 -6.027 L 93.7506 -6.1519 L 94.1285 -6.2876 L 94.4977 -6.4342 L 94.8582 -6.5917 L 95.21 -6.76 L 95.2998 -6.8061 L 95.3869 -6.8517 L 95.4711 -6.897 L 95.5525 -6.9419 L 95.6311 -6.9864 L 95.7069 -7.0305 L 95.7798 -7.0742 L 95.85 -7.1175 L 95.9173 -7.1604 L 95.9819 -7.203 L 96.0436 -7.2451 L 96.1025 -7.2869 L 96.1586 -7.3282 L 96.2119 -7.3692 L 96.2623 -7.4098 L 96.31 -7.45 L 96.3037 -7.3211 L 96.2972 -7.1919 L 96.2905 -7.0623 L 96.2837 -6.9325 L 96.2768 -6.8023 L 96.2697 -6.6719 L 96.2624 -6.5411 L 96.255 -6.41 L 96.2474 -6.2786 L 96.2397 -6.1469 L 96.2318 -6.0148 L 96.2237 -5.8825 L 96.2155 -5.7498 L 96.2072 -5.6169 L 96.1987 -5.4836 L 96.19 -5.35 L 95.92 -1.54 L 95.6786 -1.3843 L 95.4192 -1.2347 L 95.142 -1.0912 L 94.8469 -0.9537 L 94.5339 -0.8224 L 94.203 -0.6972 L 93.8542 -0.578 L 93.4875 -0.465 L 93.1029 -0.358 L 92.7005 -0.2572 L 92.2801 -0.1624 L 91.8419 -0.0737 L 91.3857 0.0088 L 90.9117 0.0853 L 90.4198 0.1557 L 89.91 0.22 L 89.7579 0.2382 L 89.6066 0.2552 L 89.456 0.271 L 89.3062 0.2856 L 89.1573 0.2991 L 89.0091 0.3114 L 88.8616 0.3225 L 88.715 0.3325 L 88.5691 0.3413 L 88.4241 0.3489 L 88.2798 0.3554 L 88.1362 0.3606 L 87.9935 0.3647 L 87.8516 0.3677 L 87.7104 0.3694 L 87.57 0.37 L 86.8034 0.3559 L 86.0534 0.3134 L 85.3202 0.2427 L 84.6037 0.1437 L 83.904 0.0165 L 83.2209 -0.1391 L 82.5546 -0.3229 L 81.905 -0.535 L 81.2721 -0.7754 L 80.6559 -1.0441 L 80.0565 -1.341 L 79.4737 -1.6663 L 78.9077 -2.0198 L 78.3584 -2.4016 L 77.8259 -2.8116 L 77.31 -3.25 L 76.8171 -3.7117 L 76.3561 -4.1894 L 75.9268 -4.683 L 75.5294 -5.1925 L 75.1637 -5.718 L 74.8298 -6.2594 L 74.5278 -6.8167 L 74.2575 -7.39 L 74.019 -7.9792 L 73.8123 -8.5844 L 73.6375 -9.2055 L 73.4944 -9.8425 L 73.3831 -10.4955 L 73.3036 -11.1644 L 73.2559 -11.8492 L 73.24 -12.55 Z M 91.89 -15.63 L 91.7505 -16.2645 L 91.582 -16.8581 L 91.3846 -17.4108 L 91.1581 -17.9225 L 90.9027 -18.3933 L 90.6183 -18.8231 L 90.3049 -19.212 L 89.9625 -19.56 L 89.5911 -19.867 L 89.1908 -20.1331 L 88.7614 -20.3583 L 88.3031 -20.5425 L 87.8158 -20.6858 L 87.2995 -20.7881 L 86.7543 -20.8495 L 86.18 -20.87 L 85.7232 -20.8575 L 85.2803 -20.8202 L 84.8513 -20.7579 L 84.4363 -20.6706 L 84.0351 -20.5585 L 83.6478 -20.4214 L 83.2745 -20.2594 L 82.915 -20.0725 L 82.5695 -19.8607 L 82.2378 -19.6239 L 81.9201 -19.3622 L 81.6163 -19.0756 L 81.3263 -18.7641 L 81.0503 -18.4277 L 80.7882 -18.0663 L 80.54 -17.68 L 80.4673 -17.5568 L 80.3967 -17.432 L 80.3282 -17.3058 L 80.2619 -17.1781 L 80.1976 -17.0489 L 80.1355 -16.9183 L 80.0754 -16.7861 L 80.0175 -16.6525 L 79.9617 -16.5174 L 79.908 -16.3808 L 79.8564 -16.2427 L 79.8069 -16.1031 L 79.7595 -15.9621 L 79.7142 -15.8195 L 79.6711 -15.6755 L 79.63 -15.53 L 79.7048 -15.5263 L 79.7816 -15.5227 L 79.8604 -15.5191 L 79.9413 -15.5156 L 80.0241 -15.5122 L 80.1091 -15.5089 L 80.196 -15.5057 L 80.285 -15.5025 L 80.376 -15.4994 L 80.4691 -15.4964 L 80.5641 -15.4935 L 80.6613 -15.4906 L 80.7604 -15.4879 L 80.8616 -15.4852 L 80.9648 -15.4825 L 81.07 -15.48 L 82.88 -15.48 L 82.9922 -15.4764 L 83.1039 -15.473 L 83.215 -15.4698 L 83.3256 -15.4669 L 83.4357 -15.4642 L 83.5452 -15.4617 L 83.6541 -15.4595 L 83.7625 -15.4575 L 83.8704 -15.4557 L 83.9777 -15.4542 L 84.0844 -15.4529 L 84.1906 -15.4519 L 84.2963 -15.4511 L 84.4014 -15.4505 L 84.506 -15.4501 L 84.61 -15.45 L 86.01 -15.45 L 86.1648 -15.4501 L 86.3194 -15.4505 L 86.4736 -15.4511 L 86.6275 -15.4519 L 86.7811 -15.4529 L 86.9344 -15.4542 L 87.0873 -15.4557 L 87.24 -15.4575 L 87.3923 -15.4595 L 87.5444 -15.4617 L 87.6961 -15.4642 L 87.8475 -15.4669 L 87.9986 -15.4698 L 88.1494 -15.473 L 88.2998 -15.4764 L 88.45 -15.48 L 90.45 -15.55 L 90.5494 -15.5538 L 90.6475 -15.5578 L 90.7444 -15.562 L 90.84 -15.5662 L 90.9344 -15.5707 L 91.0275 -15.5753 L 91.1194 -15.5801 L 91.21 -15.585 L 91.2994 -15.5901 L 91.3875 -15.5953 L 91.4744 -15.6007 L 91.56 -15.6062 L 91.6444 -15.612 L 91.7275 -15.6178 L 91.8094 -15.6238 L 91.89 -15.63 Z M 107.63 10.69 L 101.34 8.5 L 102.95 7.2 L 103.3989 6.8203 L 103.8383 6.4186 L 104.268 5.995 L 104.6881 5.5494 L 105.0986 5.0818 L 105.4995 4.5923 L 105.8908 4.0809 L 106.2725 3.5475 L 106.6446 2.9921 L 107.007 2.4148 L 107.3599 1.8156 L 107.7031 1.1944 L 108.0368 0.5512 L 108.3608 -0.1139 L 108.6752 -0.801 L 108.98 -1.51 L 110.1 -4.22 L 100.75 -25.51 L 107.59 -25.51 L 113.44 -10.77 L 118.89 -25.51 L 125.92 -25.51 L 125.7591 -25.2782 L 125.5938 -25.0228 L 125.4241 -24.7438 L 125.25 -24.4412 L 125.0716 -24.1151 L 124.8888 -23.7653 L 124.7016 -23.392 L 124.51 -22.995 L 124.3141 -22.5745 L 124.1138 -22.1303 L 123.9091 -21.6626 L 123.7 -21.1712 L 123.4866 -20.6563 L 123.2688 -20.1178 L 123.0466 -19.5557 L 122.82 -18.97 L 119.16 -9.91 L 118.2536 -7.8045 L 117.372 -5.8081 L 116.5152 -3.9208 L 115.6831 -2.1425 L 114.8758 -0.4733 L 114.0933 1.0869 L 113.3355 2.538 L 112.6025 3.88 L 111.8943 5.113 L 111.2108 6.2369 L 110.5521 7.2517 L 109.9181 8.1575 L 109.3089 8.9542 L 108.7245 9.6419 L 108.1649 10.2205 L 107.63 10.69 Z"/>
  </g>
</svg>
